<svg width="82" height="11" viewBox="0 0 82 11" fill="none" xmlns="http://www.w3.org/2000/svg">
<path d="M0.666667 5.35498C0.666666 8.3005 3.05448 10.6883 6 10.6883C8.94552 10.6883 11.3333 8.3005 11.3333 5.35498C11.3333 2.40946 8.94552 0.0216472 6 0.021647C3.05448 0.0216467 0.666667 2.40946 0.666667 5.35498ZM6 5.35498L6 6.35498L7 6.35498L7 5.35498L7 4.35498L6 4.35498L6 5.35498ZM9 5.35498L9 6.35498L11 6.35498L11 5.35498L11 4.35498L9 4.35498L9 5.35498ZM13 5.35498L13 6.35498L15 6.35498L15 5.35498L15 4.35498L13 4.35498L13 5.35498ZM17 5.35498L17 6.35498L19 6.35498L19 5.35498L19 4.35498L17 4.35498L17 5.35498ZM21 5.35498L21 6.35498L23 6.35498L23 5.35498L23 4.35498L21 4.35498L21 5.35498ZM25 5.35498L25 6.35498L27 6.35498L27 5.35498L27 4.35498L25 4.35498L25 5.35498ZM29 5.35498L29 6.35498L31 6.35498L31 5.35498L31 4.35498L29 4.35498L29 5.35498ZM33 5.35498L33 6.35498L35 6.35498L35 5.35498L35 4.35498L33 4.35498L33 5.35498ZM37 5.35498L37 6.35498L39 6.35498L39 5.35498L39 4.35498L37 4.35498L37 5.35498ZM41 5.35498L41 6.35498L43 6.35498L43 5.35498L43 4.35498L41 4.35498L41 5.35498ZM45 5.35498L45 6.35498L47 6.35498L47 5.35498L47 4.35498L45 4.35498L45 5.35498ZM49 5.35498L49 6.35498L51 6.35498L51 5.35498L51 4.35498L49 4.35498L49 5.35498ZM53 5.35498L53 6.35498L55 6.35498L55 5.35498L55 4.35498L53 4.35498L53 5.35498ZM57 5.35498L57 6.35498L59 6.35499L59 5.35499L59 4.35499L57 4.35498L57 5.35498ZM61 5.35499L61 6.35499L63 6.35499L63 5.35499L63 4.35499L61 4.35499L61 5.35499ZM65 5.35499L65 6.35499L67 6.35499L67 5.35499L67 4.35499L65 4.35499L65 5.35499ZM69 5.35499L69 6.35499L71 6.35499L71 5.35499L71 4.35499L69 4.35499L69 5.35499ZM73 5.35499L73 6.35499L75 6.35499L75 5.35499L75 4.35499L73 4.35499L73 5.35499ZM77 5.35499L77 6.35499L79 6.35499L79 5.35499L79 4.35499L77 4.35499L77 5.35499ZM81 5.35499L81 6.35499L82 6.35499L82 5.35499L82 4.35499L81 4.35499L81 5.35499Z" fill="white"/>
</svg>
