<svg width="16" height="16" viewBox="0 0 16 16" fill="none" xmlns="http://www.w3.org/2000/svg">
<g clip-path="url(#clip0_586_713)">
<path d="M12.6667 0H6.66667C4.82867 0 3.33333 1.49533 3.33333 3.33333V4H3C1.346 4 0 5.346 0 7V13.6667C0 14.9527 1.046 15.9993 2.33267 16H12.6667C14.5047 16 16 14.5047 16 12.6667V3.33333C16 1.49533 14.5047 0 12.6667 0ZM3.33333 13.6667C3.33333 14.218 2.88467 14.6667 2.33333 14.6667C1.782 14.6667 1.33333 14.218 1.33333 13.6667V7C1.33333 6.08133 2.08133 5.33333 3 5.33333H3.33333V13.6667ZM14.6667 12.6667C14.6667 13.7693 13.7693 14.6667 12.6667 14.6667H4.44133C4.58533 14.3633 4.66667 14.0247 4.66667 13.6667V3.33333C4.66667 2.23067 5.564 1.33333 6.66667 1.33333H12.6667C13.7693 1.33333 14.6667 2.23067 14.6667 3.33333V12.6667ZM13.3333 4.66667C13.3333 5.03467 13.0347 5.33333 12.6667 5.33333H10.6667C10.2987 5.33333 10 5.03467 10 4.66667C10 4.29867 10.2987 4 10.6667 4H12.6667C13.0347 4 13.3333 4.29867 13.3333 4.66667ZM13.3333 7.33333C13.3333 7.70133 13.0347 8 12.6667 8H6.66667C6.29867 8 6 7.70133 6 7.33333C6 6.96533 6.29867 6.66667 6.66667 6.66667H12.6667C13.0347 6.66667 13.3333 6.96533 13.3333 7.33333ZM13.3333 10C13.3333 10.368 13.0347 10.6667 12.6667 10.6667H6.66667C6.29867 10.6667 6 10.368 6 10C6 9.632 6.29867 9.33333 6.66667 9.33333H12.6667C13.0347 9.33333 13.3333 9.632 13.3333 10ZM13.3333 12.6667C13.3333 13.0347 13.0347 13.3333 12.6667 13.3333H6.66667C6.29867 13.3333 6 13.0347 6 12.6667C6 12.2987 6.29867 12 6.66667 12H12.6667C13.0347 12 13.3333 12.2987 13.3333 12.6667ZM6 4.66667V3.33333C6 2.96533 6.29867 2.66667 6.66667 2.66667H8C8.368 2.66667 8.66667 2.96533 8.66667 3.33333V4.66667C8.66667 5.03467 8.368 5.33333 8 5.33333H6.66667C6.29867 5.33333 6 5.03467 6 4.66667Z" fill="#092D47"/>
</g>
<defs>
<clipPath id="clip0_586_713">
<rect width="16" height="16" fill="white"/>
</clipPath>
</defs>
</svg>
