<svg width="22" height="24" viewBox="0 0 22 24" fill="none" xmlns="http://www.w3.org/2000/svg">
<path d="M18.6582 14.5586C19.4865 14.5586 20.158 15.2303 20.1582 16.0586V16.5996C20.1582 17.428 19.4866 18.0996 18.6582 18.0996H1.79688C0.968448 18.0996 0.296875 17.428 0.296875 16.5996V16.0586C0.297079 15.2303 0.968574 14.5586 1.79688 14.5586H4.02148L4.79785 7.91406C5.06293 5.64635 6.98441 3.93652 9.26758 3.93652H11.1885C13.4716 3.93652 15.3931 5.64636 15.6582 7.91406L16.4346 14.5586H18.6582Z" fill="#092D47"/>
<rect opacity="0.3" x="7.74609" y="19.2803" width="4.96538" height="4.72109" rx="2.25" fill="#E65248"/>
<path fill-rule="evenodd" clip-rule="evenodd" d="M16.7031 10.001C19.4645 10.001 21.7031 7.7624 21.7031 5.00098C21.7031 2.23955 19.4645 0.000976562 16.7031 0.000976562C13.9417 0.000976562 11.7031 2.23955 11.7031 5.00098C11.7031 7.7624 13.9417 10.001 16.7031 10.001Z" fill="#E65248"/>
<path d="M16.6 8.08098C16.1253 8.08098 15.7227 7.97164 15.392 7.75298C15.0613 7.52898 14.8107 7.20898 14.64 6.79298C14.4693 6.37164 14.384 5.86498 14.384 5.27298C14.384 4.63831 14.48 4.09964 14.672 3.65698C14.864 3.20898 15.1413 2.86764 15.504 2.63298C15.8667 2.39831 16.304 2.28098 16.816 2.28098C17.024 2.28098 17.2267 2.30498 17.424 2.35298C17.6213 2.40098 17.808 2.47298 17.984 2.56898C18.16 2.65964 18.3253 2.77431 18.48 2.91298L18.12 3.70498C17.9227 3.51831 17.712 3.38498 17.488 3.30498C17.2693 3.22498 17.0427 3.18498 16.808 3.18498C16.5733 3.18498 16.3653 3.22764 16.184 3.31298C16.0027 3.39298 15.848 3.51298 15.72 3.67298C15.5973 3.83298 15.504 4.03298 15.44 4.27298C15.376 4.51298 15.344 4.79031 15.344 5.10498V5.46498C15.4027 5.23564 15.4987 5.04098 15.632 4.88098C15.7653 4.72098 15.9307 4.59831 16.128 4.51298C16.3307 4.42764 16.5467 4.38498 16.776 4.38498C17.1067 4.38498 17.4 4.46231 17.656 4.61698C17.912 4.76631 18.112 4.97698 18.256 5.24898C18.4 5.52098 18.472 5.83298 18.472 6.18498C18.472 6.55298 18.392 6.88098 18.232 7.16898C18.0773 7.45164 17.8587 7.67564 17.576 7.84098C17.2933 8.00098 16.968 8.08098 16.6 8.08098ZM16.552 7.22498C16.744 7.22498 16.912 7.18498 17.056 7.10498C17.2 7.01964 17.312 6.90231 17.392 6.75298C17.472 6.60364 17.512 6.42764 17.512 6.22498C17.512 6.02764 17.472 5.85698 17.392 5.71298C17.312 5.56364 17.2 5.44898 17.056 5.36898C16.912 5.28364 16.7413 5.24098 16.544 5.24098C16.3467 5.24098 16.1733 5.28364 16.024 5.36898C15.88 5.44898 15.7653 5.56364 15.68 5.71298C15.6 5.85698 15.56 6.02764 15.56 6.22498C15.56 6.42764 15.6 6.60364 15.68 6.75298C15.7653 6.90231 15.88 7.01964 16.024 7.10498C16.1733 7.18498 16.3493 7.22498 16.552 7.22498Z" fill="#F7F7F7"/>
</svg>
