<svg width="18" height="18" viewBox="0 0 18 18" fill="none" xmlns="http://www.w3.org/2000/svg">
<g clip-path="url(#clip0_586_31935)">
<path d="M15.7502 4.5H11.2502C10.8354 4.5 10.5002 4.83525 10.5002 5.25C10.5002 5.66475 10.8354 6 11.2502 6H15.4397L10.5182 10.9215C10.0952 11.3445 9.40669 11.3445 8.98294 10.9215L7.07869 9.01725C6.07069 8.00925 4.43044 8.00925 3.42244 9.01725L0.219938 12.2197C-0.0733125 12.513 -0.0733125 12.987 0.219938 13.2803C0.366188 13.4265 0.558188 13.5 0.750188 13.5C0.942188 13.5 1.13419 13.4265 1.28044 13.2803L4.48294 10.0778C4.89319 9.6675 5.60794 9.6675 6.01819 10.0778L7.92244 11.982C8.93044 12.99 10.5707 12.99 11.5787 11.982L16.5009 7.0605V11.25C16.5009 11.6648 16.8362 12 17.2509 12C17.6657 12 18.0009 11.6648 18.0009 11.25V6.75C18.0009 5.5095 16.9907 4.5 15.7502 4.5Z" fill="#34C759"/>
</g>
<defs>
<clipPath id="clip0_586_31935">
<rect width="18" height="18" fill="white"/>
</clipPath>
</defs>
</svg>
