<svg width="16" height="16" viewBox="0 0 16 16" fill="none" xmlns="http://www.w3.org/2000/svg">
<g clip-path="url(#clip0_586_40094)">
<path d="M13.3333 10.6667C13.3333 11.2187 12.8853 11.6667 12.3333 11.6667C11.7813 11.6667 11.3333 11.2187 11.3333 10.6667C11.3333 10.1147 11.7813 9.66667 12.3333 9.66667C12.8853 9.66667 13.3333 10.1147 13.3333 10.6667ZM6.33333 2C5.78133 2 5.33333 2.448 5.33333 3C5.33333 3.552 5.78133 4 6.33333 4C6.88533 4 7.33333 3.552 7.33333 3C7.33333 2.448 6.88533 2 6.33333 2ZM13 4C13.552 4 14 3.552 14 3C14 2.448 13.552 2 13 2C12.448 2 12 2.448 12 3C12 3.552 12.448 4 13 4ZM16 2.66667L16 14C16 15.1027 15.1027 16 14 16L3.33333 16C1.49533 16 0 14.5047 0 12.6667L0 6C0 5.42133 0.150667 4.85933 0.428667 4.36533C0.61 4.04133 0.845333 3.75 1.12867 3.5C1.40467 3.25667 1.826 3.282 2.07 3.55867C2.31333 3.83467 2.28733 4.256 2.01133 4.5C1.952 4.55267 1.896 4.608 1.844 4.66667C2.21933 5.08467 2.76133 5.33333 3.334 5.33333L3.334 2.66667C3.33333 1.196 4.52933 0 6 0L13.3333 0C14.804 0 16 1.196 16 2.66667ZM4.66667 5.33333H7.66667C7.66667 4.22867 8.562 3.33333 9.66667 3.33333C10.7713 3.33333 11.6667 4.22867 11.6667 5.33333L14 5.33333C14.2347 5.33333 14.4573 5.38133 14.6667 5.456V2.66667C14.6667 1.93133 14.0687 1.33333 13.3333 1.33333L6 1.33333C5.26467 1.33333 4.66667 1.93133 4.66667 2.66667L4.66667 5.33333ZM14.6667 7.33333C14.6667 6.966 14.368 6.66667 14 6.66667L3.33333 6.66667C2.60267 6.66667 1.90267 6.42467 1.33333 5.998L1.33333 12.6667C1.33333 13.7693 2.23067 14.6667 3.33333 14.6667L14 14.6667C14.368 14.6667 14.6667 14.3673 14.6667 14V7.33333Z" fill="#F7F7F7"/>
</g>
<defs>
<clipPath id="clip0_586_40094">
<rect width="16" height="16" fill="white"/>
</clipPath>
</defs>
</svg>
