<svg width="18" height="18" viewBox="0 0 18 18" fill="none" xmlns="http://www.w3.org/2000/svg">
<g clip-path="url(#clip0_586_40410)">
<path d="M16.5623 4.92264L11.3123 0.809641C9.951 -0.256859 8.04825 -0.256859 6.687 0.809641L1.43775 4.92264C0.52425 5.63739 0 6.71364 0 7.87464V14.2496C0 16.3174 1.68225 17.9996 3.75 17.9996H14.25C16.3177 17.9996 18 16.3174 18 14.2496V7.87464C18 6.71364 17.4757 5.63814 16.5623 4.92264ZM16.5 14.2496C16.5 15.4901 15.4905 16.4996 14.25 16.4996H3.75C2.5095 16.4996 1.5 15.4901 1.5 14.2496V7.87464C1.5 7.17789 1.81425 6.53289 2.3625 6.10389L7.6125 1.99089C8.02125 1.67064 8.51025 1.51089 9 1.51089C9.48975 1.51089 9.9795 1.67064 10.3875 1.99089L15.6375 6.10389C16.1858 6.53289 16.5 7.17864 16.5 7.87464V14.2496ZM10.125 13.1246C10.125 13.7456 9.621 14.2496 9 14.2496C8.379 14.2496 7.875 13.7456 7.875 13.1246C7.875 12.5036 8.379 11.9996 9 11.9996C9.621 11.9996 10.125 12.5036 10.125 13.1246ZM11.652 10.0984C11.9453 10.3916 11.9453 10.8656 11.652 11.1589C11.5058 11.3051 11.3138 11.3786 11.1217 11.3786C10.9298 11.3786 10.7378 11.3051 10.5915 11.1589C9.714 10.2814 8.28675 10.2814 7.40925 11.1589C7.116 11.4521 6.642 11.4521 6.34875 11.1589C6.0555 10.8656 6.0555 10.3916 6.34875 10.0984C7.8105 8.63664 10.1903 8.63664 11.652 10.0984ZM13.773 7.97664C14.0662 8.26989 14.0662 8.74389 13.773 9.03714C13.6267 9.18339 13.4347 9.25689 13.2428 9.25689C13.0507 9.25689 12.8588 9.18339 12.7125 9.03714C10.6658 6.99039 7.335 6.99039 5.28825 9.03714C4.995 9.33039 4.521 9.33039 4.22775 9.03714C3.9345 8.74389 3.9345 8.26989 4.22775 7.97664C6.8595 5.34414 11.1413 5.34414 13.773 7.97664Z" fill="#231F20"/>
</g>
<defs>
<clipPath id="clip0_586_40410">
<rect width="18" height="18" fill="white"/>
</clipPath>
</defs>
</svg>
