<svg width="24" height="24" viewBox="0 0 24 24" fill="none" xmlns="http://www.w3.org/2000/svg">
<g clip-path="url(#clip0_493_26480)">
<path d="M22.244 5.272L18.729 1.757C17.595 0.624 16.088 0 14.486 0H9.515C7.913 0 6.406 0.624 5.272 1.757L1.757 5.272C0.624 6.406 0 7.913 0 9.515V14.486C0 16.088 0.624 17.595 1.757 18.729L5.272 22.244C6.406 23.377 7.913 24.001 9.515 24.001H14.486C16.088 24.001 17.595 23.377 18.729 22.244L22.244 18.729C23.377 17.595 24.001 16.088 24.001 14.486V9.515C24.001 7.913 23.377 6.406 22.244 5.272ZM18.334 9.833L13.102 15.065C12.489 15.678 11.674 16.016 10.807 16.016C9.94 16.016 9.125 15.678 8.512 15.065L5.725 12.278C5.334 11.887 5.334 11.255 5.725 10.864C6.116 10.473 6.748 10.473 7.139 10.864L9.926 13.651C10.397 14.122 11.218 14.121 11.688 13.651L16.92 8.419C17.311 8.028 17.943 8.028 18.334 8.419C18.725 8.81 18.725 9.442 18.334 9.833Z" fill="#34C759"/>
</g>
<defs>
<clipPath id="clip0_493_26480">
<rect width="24" height="24" fill="white"/>
</clipPath>
</defs>
</svg>
