<svg width="24" height="24" viewBox="0 0 24 24" fill="none" xmlns="http://www.w3.org/2000/svg">
<path d="M16 2H15.829C15.416 0.836 14.304 0 13 0H11C9.696 0 8.584 0.836 8.171 2H8C5.243 2 3 4.243 3 7V19C3 21.757 5.243 24 8 24H16C18.757 24 21 21.757 21 19V7C21 4.243 18.757 2 16 2ZM7 18C6.448 18 6 17.552 6 17C6 16.448 6.448 16 7 16C7.552 16 8 16.448 8 17C8 17.552 7.552 18 7 18ZM17 18H11C10.448 18 10 17.552 10 17C10 16.448 10.448 16 11 16H17C17.552 16 18 16.448 18 17C18 17.552 17.552 18 17 18ZM7 14C6.448 14 6 13.552 6 13C6 12.448 6.448 12 7 12C7.552 12 8 12.448 8 13C8 13.552 7.552 14 7 14ZM17 14H11C10.448 14 10 13.552 10 13C10 12.448 10.448 12 11 12H17C17.552 12 18 12.448 18 13C18 13.552 17.552 14 17 14ZM7 10C6.448 10 6 9.552 6 9C6 8.448 6.448 8 7 8C7.552 8 8 8.448 8 9C8 9.552 7.552 10 7 10ZM17 10H11C10.448 10 10 9.552 10 9C10 8.448 10.448 8 11 8H17C17.552 8 18 8.448 18 9C18 9.552 17.552 10 17 10Z" fill="#3D42DF"/>
</svg>
