<svg width="24" height="24" viewBox="0 0 24 24" fill="none" xmlns="http://www.w3.org/2000/svg">
<g clip-path="url(#clip0_493_1636)">
<path d="M22.243 5.272L18.728 1.757C17.595 0.624 16.088 0 14.486 0H9.515C7.913 0 6.406 0.624 5.272 1.757L1.757 5.272C0.624 6.406 0 7.913 0 9.515V14.486C0 16.088 0.624 17.595 1.757 18.729L5.272 22.244C6.406 23.377 7.913 24.001 9.515 24.001H14.486C16.089 24.001 17.595 23.377 18.728 22.244L22.243 18.73C23.377 17.597 24.001 16.09 24.001 14.487V9.516C24.001 7.913 23.377 6.405 22.243 5.272ZM16.44 15.061C16.831 15.452 16.831 16.084 16.44 16.475C16.245 16.67 15.989 16.768 15.733 16.768C15.477 16.768 15.221 16.67 15.026 16.475L11.983 13.432L8.94 16.475C8.745 16.67 8.489 16.768 8.233 16.768C7.977 16.768 7.721 16.67 7.526 16.475C7.135 16.084 7.135 15.452 7.526 15.061L10.569 12.018L7.526 8.975C7.135 8.584 7.135 7.952 7.526 7.561C7.917 7.17 8.549 7.17 8.94 7.561L11.983 10.604L15.026 7.561C15.417 7.17 16.049 7.17 16.44 7.561C16.831 7.952 16.831 8.584 16.44 8.975L13.397 12.018L16.44 15.061Z" fill="#FF3B30"/>
</g>
<defs>
<clipPath id="clip0_493_1636">
<rect width="24" height="24" fill="white"/>
</clipPath>
</defs>
</svg>
