<svg width="24" height="24" viewBox="0 0 24 24" fill="none" xmlns="http://www.w3.org/2000/svg">
<g clip-path="url(#clip0_493_354)">
<path d="M14.7823 19.319C15.7613 19.751 16.8414 19.996 17.9783 19.999C17.9844 20.946 17.6683 21.872 17.0383 22.604C16.2733 23.492 15.1644 24 13.9944 24H4.00435C2.83435 24 1.72535 23.49 0.96135 22.602C0.20835 21.728 -0.12565 20.578 0.0443499 19.445C0.45035 16.746 1.92935 14.247 4.44535 12.001C1.92835 9.754 0.44935 7.255 0.0433499 4.556C-0.12665 3.423 0.20835 2.273 0.96035 1.399C1.72535 0.51 2.83435 0 4.00435 0H13.9944C15.1644 0 16.2733 0.508 17.0383 1.396C17.6683 2.127 17.9844 3.054 17.9783 4.001C13.5773 4.013 10.0003 7.596 10.0003 12C10.0003 12.656 10.0884 13.29 10.2383 13.901L9.62635 13.413C9.26135 13.123 8.74635 13.123 8.38135 13.411L7.67735 13.97C6.12035 15.201 4.05835 17.182 3.07235 19.626C2.94735 19.935 2.98535 20.284 3.17035 20.56C3.35635 20.835 3.66735 21 3.99935 21H13.9993C14.3323 21 14.6433 20.836 14.8284 20.56C15.0143 20.285 15.0513 19.934 14.9263 19.626C14.8843 19.521 14.8293 19.423 14.7833 19.32L14.7823 19.319ZM24.0003 12C24.0003 15.309 21.3093 18 18.0003 18C14.6913 18 12.0003 15.309 12.0003 12C12.0003 8.691 14.6913 6 18.0003 6C21.3093 6 24.0003 8.691 24.0003 12ZM20.2073 12.793L19.0003 11.586V9.5C19.0003 8.948 18.5523 8.5 18.0003 8.5C17.4483 8.5 17.0003 8.948 17.0003 9.5V12C17.0003 12.265 17.1053 12.52 17.2933 12.707L18.7933 14.207C18.9883 14.402 19.2443 14.5 19.5003 14.5C19.7563 14.5 20.0124 14.402 20.2073 14.207C20.5984 13.816 20.5984 13.184 20.2073 12.793ZM5.64635 18.999H12.3483C11.4243 17.57 10.0493 16.308 9.00035 15.472C7.95335 16.3 6.56835 17.567 5.64635 18.999Z" fill="#F39C12"/>
</g>
<defs>
<clipPath id="clip0_493_354">
<rect width="24" height="24" fill="white"/>
</clipPath>
</defs>
</svg>
