<svg width="138" height="64" viewBox="0 0 138 64" fill="none" xmlns="http://www.w3.org/2000/svg">
<path d="M90.6186 10.4005C93.699 10.2773 96.7947 10.3851 99.8751 10.3543C102.925 10.2773 105.928 11.8175 107.699 14.2818C108.885 15.8989 109.455 17.8858 109.517 19.8726C106.76 19.8726 104.018 21.1356 102.247 23.261C100.799 24.9398 100.045 27.1423 100.014 29.3447C96.8872 29.3293 93.776 29.3755 90.6648 29.3139C90.5724 29.0213 90.4492 28.7286 90.4492 28.4206C90.4492 22.7219 90.4646 17.0233 90.4492 11.3092C90.4492 11.0012 90.5416 10.7086 90.6186 10.4005Z" fill="#E65248"/>
<path d="M102.245 23.2605C104.016 21.135 106.758 19.8721 109.515 19.8721C112.487 19.8567 115.46 19.8721 118.417 19.8721C118.756 19.8413 119.079 20.1185 119.002 20.4728C119.018 26.5102 118.987 32.5631 119.018 38.616C118.771 38.7855 118.509 38.9395 118.201 38.9087C115.275 38.8933 112.364 38.9241 109.438 38.8933C106.973 38.8471 104.524 37.8613 102.784 36.0901C101.013 34.3343 100.012 31.8393 100.012 29.3442C100.043 27.1417 100.797 24.9393 102.245 23.2605Z" fill="#082C46"/>
<path fill-rule="evenodd" clip-rule="evenodd" d="M72.8444 30.2227C74.364 29.9762 75.8785 29.7298 77.3879 29.4834C77.3879 37.2305 77.3879 44.9622 77.3879 52.7093C75.8323 53.1713 74.2151 53.4024 72.598 53.541C70.5341 53.7412 68.3625 53.6488 66.4835 52.6939C64.9433 51.9546 63.7419 50.5992 63.1105 49.0282C62.3404 47.1184 62.3096 44.993 62.633 42.9908C62.9718 40.9731 63.973 38.9247 65.7596 37.8158C67.8696 36.5374 70.6265 36.4912 72.8444 37.5077C72.8444 35.0742 72.8444 32.6408 72.8444 30.2227ZM67.6848 42.1129C67.0841 43.2526 67.0533 44.6079 67.1303 45.8709C67.2535 47.1954 67.7926 48.6432 69.0247 49.3209C70.1953 49.9369 71.5968 49.7675 72.8598 49.5827C72.8444 46.8258 72.8444 44.0689 72.8598 41.2966C71.9203 40.7575 70.8114 40.5727 69.7486 40.6959C68.8861 40.7883 68.0852 41.3274 67.6848 42.1129ZM18.9844 33.1336C20.4937 32.8872 22.0185 32.6407 23.5279 32.3943C23.5433 33.9653 23.5279 35.5517 23.5433 37.1227C25.3504 37.1227 27.1576 37.1227 28.9647 37.1227C28.9647 38.3959 28.9647 39.664 28.9647 40.9269C27.1576 40.9269 25.3504 40.9269 23.5433 40.9269C23.5433 42.8059 23.5433 44.6849 23.5433 46.564C23.5587 47.3802 23.6511 48.2428 24.0978 48.9358C24.452 49.4903 25.1297 49.6905 25.7457 49.7213C26.8393 49.7829 27.9328 49.5981 28.9647 49.2439C28.9647 50.5068 28.9647 51.7646 28.9647 53.0173C27.6248 53.5102 26.1924 53.6488 24.7754 53.5872C23.112 53.541 21.3562 53.0019 20.2935 51.662C19.2 50.3066 19.046 48.4738 18.9844 46.795C18.9844 42.2515 18.9844 37.6925 18.9844 33.1336Z" fill="#082C46"/>
<path fill-rule="evenodd" clip-rule="evenodd" d="M32.7383 37.9849C32.7383 43.0675 32.7383 48.1347 32.7383 53.2172C34.2477 53.2172 35.7622 53.2172 37.2818 53.2172C37.2818 49.1204 37.2664 45.0235 37.2818 40.9266C38.2059 40.7264 39.1454 40.6186 40.0849 40.7264C40.8858 40.788 41.6559 41.0036 42.4414 41.1576C42.6724 39.9101 42.9497 38.6471 43.1961 37.3996C41.4095 36.8451 39.4997 36.7065 37.6514 36.876C35.9726 37.0146 34.3401 37.4612 32.7383 37.9849ZM44.9827 42.2666C44.4282 44.2534 44.4282 46.3943 44.9981 48.3657C45.4909 50.1061 46.6769 51.6463 48.2633 52.5088C50.1115 53.5869 52.3293 53.7717 54.4394 53.5869C55.9025 53.4637 57.3811 53.2326 58.7365 52.6474C58.5363 51.4152 58.3206 50.1831 58.1358 48.9509C57.1809 49.336 56.1644 49.5362 55.1479 49.6594C53.6693 49.798 52.0829 49.8289 50.7738 49.0434C49.9267 48.5505 49.3568 47.6572 49.249 46.6869C52.6887 46.6869 56.1336 46.6869 59.5836 46.6869C59.7992 44.6692 59.7068 42.5592 58.9213 40.6648C58.2128 39.0014 56.7651 37.6768 55.0401 37.1224C52.8068 36.3985 50.2347 36.5987 48.2325 37.8617C46.6307 38.8474 45.5218 40.4954 44.9827 42.2666ZM53.7771 40.8034C54.7782 41.3271 55.2403 42.4822 55.2865 43.5603C53.2688 43.5757 51.2512 43.5603 49.249 43.5603C49.403 42.7286 49.6494 41.8353 50.2809 41.2346C51.1896 40.3721 52.6836 40.2489 53.7771 40.8034ZM82.9789 39.2478C81.7313 40.6648 81.0536 42.5438 80.9458 44.4228C80.8072 46.5791 81.2693 48.8431 82.563 50.6143C83.6411 52.1391 85.3507 53.1864 87.1836 53.5099C89.3706 53.8949 91.7425 53.5561 93.5599 52.2315C95.0077 51.1996 95.978 49.5978 96.4092 47.9036C96.8251 46.2402 96.8559 44.4844 96.4862 42.8056C96.0704 40.9574 95.0539 39.217 93.4829 38.1235C91.7887 36.9068 89.617 36.5063 87.5686 36.7989C85.8282 37.0454 84.1494 37.9079 82.9789 39.2478ZM90.9108 41.4349C91.8195 42.3744 92.0659 43.7451 92.0967 45.0081C92.0967 46.2864 91.9119 47.6572 91.111 48.6891C90.0637 50.0907 87.6764 50.0907 86.5983 48.7199C85.8282 47.7496 85.5818 46.4713 85.5818 45.2545C85.5664 44.0994 85.7358 42.898 86.3827 41.9123C86.7831 41.2655 87.4608 40.8034 88.2155 40.6802C89.155 40.5108 90.2331 40.711 90.9108 41.4349Z" fill="#082C46"/>
</svg>
